<svg width="978" height="198" viewBox="0 0 978 198" fill="none" xmlns="http://www.w3.org/2000/svg">
<path fill-rule="evenodd" clip-rule="evenodd" d="M1.75736 70.752C0.632143 71.8773 0 73.4034 0 74.9947V143.853C0 147.166 2.68633 149.832 5.99473 149.644C14.5314 149.161 24.0873 148.226 31.5694 151.325C38.718 154.286 43.5056 161.451 43.5056 169.189V187.358C43.5056 190.672 46.1919 193.358 49.5056 193.358H99.0279C100.619 193.358 102.145 192.726 103.271 191.601L172.265 122.606C173.39 121.481 174.023 119.955 174.023 118.364V49.5056C174.023 46.1919 171.336 43.5265 168.028 43.7139C159.491 44.1976 149.935 45.1324 142.453 42.0338C135.304 39.0722 130.517 31.9076 130.517 24.1698V6C130.517 2.68629 127.831 0 124.517 0H74.9947C73.4034 0 71.8773 0.632141 70.752 1.75736L1.75736 70.752ZM83.9347 143.261C82.8095 144.387 81.2833 145.019 79.692 145.019H54.3396C51.0259 145.019 48.3396 142.332 48.3396 139.019V94.3305C48.3396 92.7392 48.9717 91.2131 50.097 90.0879L90.0879 50.097C91.2131 48.9717 92.7392 48.3396 94.3305 48.3396H119.683C122.997 48.3396 125.683 51.0259 125.683 54.3396V99.0279C125.683 100.619 125.051 102.145 123.926 103.271L83.9347 143.261Z" fill="#0004E8"/>
<path d="M272.984 161.179L237.721 35.2403H263.809L287.917 128.615L314.184 35.2403H335.414L361.861 128.615L385.969 35.2403H412.057L376.794 161.179H348.547L324.799 78.0595L301.23 161.179H272.984ZM477.626 71.2229H500.835V161.179H477.626V150.564C470.67 159.32 460.894 163.698 448.301 163.698C436.306 163.698 425.991 159.14 417.356 150.025C408.84 140.789 404.582 129.515 404.582 116.201C404.582 102.887 408.84 91.6729 417.356 82.5574C425.991 73.3218 436.306 68.7041 448.301 68.7041C460.894 68.7041 470.67 73.082 477.626 81.8377V71.2229ZM434.807 134.552C439.485 139.23 445.422 141.569 452.619 141.569C459.815 141.569 465.752 139.23 470.43 134.552C475.228 129.754 477.626 123.637 477.626 116.201C477.626 108.765 475.228 102.708 470.43 98.0298C465.752 93.2322 459.815 90.8333 452.619 90.8333C445.422 90.8333 439.485 93.2322 434.807 98.0298C430.129 102.708 427.791 108.765 427.791 116.201C427.791 123.637 430.129 129.754 434.807 134.552ZM567.938 93.532H547.608V130.954C547.608 134.072 548.388 136.351 549.947 137.791C551.506 139.23 553.785 140.069 556.784 140.309C559.782 140.429 563.5 140.369 567.938 140.129V161.179C551.986 162.978 540.712 161.479 534.115 156.681C527.638 151.884 524.399 143.308 524.399 130.954V93.532H508.747V71.2229H524.399V53.0517L547.608 46.0351V71.2229H567.938V93.532ZM628.92 68.7041C638.756 68.7041 646.852 72.0025 653.208 78.5993C659.685 85.1961 662.924 94.3117 662.924 105.946V161.179H639.715V108.825C639.715 102.828 638.096 98.2697 634.857 95.1512C631.619 91.9128 627.301 90.2936 621.904 90.2936C615.907 90.2936 611.109 92.1527 607.511 95.8709C603.912 99.5891 602.113 105.166 602.113 112.603V161.179H578.905V35.2403H602.113V81.298C607.751 72.902 616.686 68.7041 628.92 68.7041ZM696.954 125.736C700.072 137.011 708.528 142.648 722.322 142.648C731.197 142.648 737.914 139.65 742.472 133.653L761.183 144.447C752.307 157.281 739.233 163.698 721.962 163.698C707.089 163.698 695.155 159.2 686.159 150.205C677.164 141.209 672.666 129.874 672.666 116.201C672.666 102.648 677.104 91.3731 685.979 82.3774C694.855 73.2619 706.249 68.7041 720.163 68.7041C733.356 68.7041 744.211 73.2619 752.727 82.3774C761.363 91.493 765.681 102.768 765.681 116.201C765.681 119.2 765.381 122.378 764.781 125.736H696.954ZM696.594 107.745H742.472C741.153 101.628 738.394 97.0703 734.196 94.0718C730.118 91.0732 725.44 89.5739 720.163 89.5739C713.926 89.5739 708.768 91.1932 704.69 94.4316C700.612 97.5501 697.914 101.988 696.594 107.745ZM795.393 125.736C798.511 137.011 806.967 142.648 820.761 142.648C829.636 142.648 836.353 139.65 840.911 133.653L859.622 144.447C850.746 157.281 837.672 163.698 820.401 163.698C805.528 163.698 793.594 159.2 784.598 150.205C775.603 141.209 771.105 129.874 771.105 116.201C771.105 102.648 775.543 91.3731 784.418 82.3774C793.294 73.2619 804.688 68.7041 818.602 68.7041C831.795 68.7041 842.65 73.2619 851.166 82.3774C859.802 91.493 864.12 102.768 864.12 116.201C864.12 119.2 863.82 122.378 863.22 125.736H795.393ZM795.033 107.745H840.911C839.591 101.628 836.833 97.0703 832.635 94.0718C828.557 91.0732 823.879 89.5739 818.602 89.5739C812.365 89.5739 807.207 91.1932 803.129 94.4316C799.051 97.5501 796.352 101.988 795.033 107.745ZM942.408 71.2229H965.617V197.162H942.408V150.564C935.572 159.32 925.856 163.698 913.262 163.698C901.148 163.698 890.773 159.14 882.138 150.025C873.622 140.789 869.364 129.515 869.364 116.201C869.364 102.887 873.622 91.6729 882.138 82.5574C890.773 73.3218 901.148 68.7041 913.262 68.7041C925.856 68.7041 935.572 73.082 942.408 81.8377V71.2229ZM899.589 134.552C904.387 139.23 910.384 141.569 917.58 141.569C924.777 141.569 930.714 139.23 935.392 134.552C940.069 129.754 942.408 123.637 942.408 116.201C942.408 108.765 940.069 102.708 935.392 98.0298C930.714 93.2322 924.777 90.8333 917.58 90.8333C910.384 90.8333 904.387 93.2322 899.589 98.0298C894.911 102.708 892.572 108.765 892.572 116.201C892.572 123.637 894.911 129.754 899.589 134.552Z" fill="#0004E8"/>
</svg>
